<?xml version="1.0" standalone="no"?>
<!DOCTYPE svg PUBLIC "-//W3C//DTD SVG 20010904//EN"
 "http://www.w3.org/TR/2001/REC-SVG-20010904/DTD/svg10.dtd">
<svg version="1.0" xmlns="http://www.w3.org/2000/svg"
 width="501.000000pt" height="498.000000pt" viewBox="0 0 501.000000 498.000000"
 preserveAspectRatio="xMidYMid meet">

<g transform="translate(0.000000,498.000000) scale(0.100000,-0.100000)"
fill="#000000" stroke="none">
<path d="M1471 4591 l-263 -6 -34 -39 c-44 -51 -54 -89 -54 -208 0 -76 5 -114
25 -175 43 -135 98 -214 405 -577 213 -252 332 -419 376 -527 50 -123 16 -245
-89 -316 -75 -50 -112 -55 -479 -60 -300 -4 -337 -7 -345 -21 -4 -10 -11 -118
-14 -242 -3 -124 -9 -237 -13 -251 l-8 -26 82 -6 c66 -4 86 -9 101 -26 19 -20
30 -21 337 -23 174 -1 346 -1 382 0 75 4 281 52 281 67 0 5 -15 14 -33 18 -30
8 -31 10 -15 21 102 63 218 143 245 169 94 90 207 290 233 412 16 80 17 285 0
360 -20 90 -49 172 -92 255 -38 74 -179 269 -289 401 -30 36 -113 135 -184
220 -214 254 -247 320 -251 484 -2 90 -4 100 -21 101 -11 0 -138 -2 -283 -5z
m479 -2451 c0 -5 -9 -10 -21 -10 -11 0 -17 5 -14 10 3 6 13 10 21 10 8 0 14
-4 14 -10z m-482 -27 c-16 -2 -40 -2 -55 0 -16 2 -3 4 27 4 30 0 43 -2 28 -4z"/>
<path d="M3755 2366 c-70 -17 -122 -47 -177 -100 -55 -53 -111 -132 -106 -148
2 -6 13 3 24 21 35 55 131 146 186 176 44 24 65 30 122 30 68 0 68 0 106 -42
22 -25 42 -62 49 -87 15 -63 13 -189 -4 -265 -44 -184 -219 -391 -332 -391
-15 0 -35 -5 -43 -11 -11 -8 0 -9 43 -6 44 4 57 2 57 -8 0 -8 -4 -17 -10 -20
-20 -12 -82 -117 -95 -159 -7 -23 -24 -65 -38 -92 -13 -27 -29 -83 -36 -124
-7 -41 -19 -86 -27 -99 -21 -31 -6 -43 32 -26 25 10 33 21 39 51 3 22 17 53
29 69 30 39 50 96 33 92 -25 -4 -18 70 12 149 28 72 40 89 139 189 199 202
247 298 259 512 l6 112 -32 50 c-39 60 -88 105 -138 126 -19 8 -38 15 -42 14
-3 0 -28 -6 -56 -13z"/>
<path d="M3669 2161 c-20 -42 -43 -93 -53 -114 -11 -27 -21 -37 -32 -33 -11 4
-12 2 -4 -14 5 -10 7 -26 4 -34 -4 -11 -2 -15 8 -11 12 5 88 -80 88 -99 0 -4
9 -17 21 -29 12 -12 32 -39 45 -59 13 -21 30 -38 38 -38 30 0 22 30 -25 84
-27 32 -49 62 -49 66 0 19 24 60 35 60 7 0 31 -22 54 -50 47 -56 57 -60 66
-29 6 18 -3 31 -44 68 -54 49 -60 65 -37 96 14 19 16 19 55 -13 40 -32 66 -36
55 -8 -3 8 -23 27 -45 41 -32 23 -38 32 -33 51 3 13 3 32 0 41 -6 14 -10 12
-25 -13 -10 -16 -20 -40 -24 -54 -3 -14 -12 -33 -19 -43 -13 -17 -16 -17 -46
12 -36 35 -40 63 -13 90 20 20 38 96 24 104 -4 2 -24 -30 -44 -72z m21 -143
c16 -18 30 -41 30 -50 0 -22 -21 -68 -31 -68 -10 0 -69 75 -69 88 0 18 23 62
32 62 4 0 22 -15 38 -32z"/>
<path d="M4058 2097 c4 -101 3 -105 -37 -208 -23 -58 -41 -108 -41 -112 0 -4
9 -7 21 -7 47 0 108 205 94 320 -6 45 -28 110 -38 110 -1 0 -1 -46 1 -103z"/>
<path d="M3580 2142 c0 -5 7 -15 15 -22 8 -7 15 -8 15 -2 0 5 -7 15 -15 22 -8
7 -15 8 -15 2z"/>
<path d="M3720 2121 c0 -5 7 -11 15 -15 9 -3 15 0 15 9 0 8 -7 15 -15 15 -8 0
-15 -4 -15 -9z"/>
<path d="M2443 2093 c9 -2 25 -2 35 0 9 3 1 5 -18 5 -19 0 -27 -2 -17 -5z"/>
<path d="M3307 1937 c5 -51 -20 -97 -69 -127 -19 -12 -26 -20 -17 -20 23 0 67
37 84 70 16 32 20 106 6 114 -5 3 -7 -13 -4 -37z"/>
<path d="M3537 1878 c107 -180 139 -228 150 -228 29 0 14 26 -91 168 -70 94
-93 117 -59 60z"/>
<path d="M3401 1873 c-37 -29 -61 -78 -60 -120 0 -21 3 -17 13 20 13 49 49 97
73 97 7 0 13 7 13 15 0 19 1 19 -39 -12z"/>
<path d="M3436 1845 c-4 -11 -12 -30 -17 -43 -12 -29 -11 -35 1 -27 13 8 13
-21 -1 -47 -19 -34 5 -45 35 -15 29 29 35 77 12 99 -8 8 -16 23 -18 34 -5 18
-5 18 -12 -1z"/>
<path d="M2110 1729 c-39 -16 -71 -50 -96 -104 -28 -59 -31 -125 -9 -209 20
-77 13 -84 -9 -8 -30 109 -14 224 41 284 9 10 12 18 6 18 -14 0 -48 -39 -69
-80 -27 -53 -23 -184 9 -277 14 -40 22 -71 17 -68 -4 2 -18 37 -31 77 -34 104
-33 214 2 285 14 29 21 49 15 46 -24 -13 -56 -47 -56 -60 0 -17 -17 -17 -22
-1 -3 7 -17 -7 -33 -32 -15 -25 -31 -46 -35 -48 -5 -2 -5 -12 -2 -24 3 -14 1
-19 -6 -14 -14 8 -25 -50 -20 -104 4 -46 1 -49 -13 -17 -7 16 -8 7 -4 -36 6
-70 32 -140 74 -202 18 -26 30 -49 29 -51 -7 -7 -87 124 -102 167 -11 33 -15
38 -16 19 0 -36 52 -140 89 -174 17 -17 31 -26 31 -21 0 5 12 -3 28 -17 34
-33 118 -78 144 -78 11 0 33 -8 49 -17 26 -16 29 -16 47 0 10 9 29 17 41 17
58 0 206 108 243 177 63 116 72 221 28 337 -31 81 -114 166 -190 194 -70 25
-148 34 -180 21z m59 -145 c14 -33 0 -59 -36 -69 -58 -14 -78 64 -23 92 29 14
44 8 59 -23z m-335 -289 c4 -20 3 -25 -3 -15 -5 8 -11 31 -15 50 -7 41 7 13
18 -35z m205 15 c11 -24 11 -24 -3 -6 -9 11 -16 24 -16 30 0 12 5 7 19 -24z
m31 -50 c6 -11 8 -20 6 -20 -3 0 -10 9 -16 20 -6 11 -8 20 -6 20 3 0 10 -9 16
-20z m-201 -47 c12 -24 19 -43 16 -43 -5 0 -45 75 -45 86 0 11 6 2 29 -43z
m266 -33 c21 -22 37 -40 34 -40 -3 0 -23 18 -44 40 -21 22 -37 40 -34 40 3 0
23 -18 44 -40z m-4 -47 c13 -16 12 -17 -3 -4 -17 13 -22 21 -14 21 2 0 10 -8
17 -17z m105 -29 c18 -14 18 -14 -6 -3 -31 14 -36 19 -24 19 6 0 19 -7 30 -16z
m-281 -14 c10 -11 16 -20 13 -20 -3 0 -13 9 -23 20 -10 11 -16 20 -13 20 3 0
13 -9 23 -20z"/>
<path d="M3425 1468 c25 -19 124 -52 132 -44 13 12 -20 34 -60 39 -23 3 -53 9
-67 13 -24 6 -24 6 -5 -8z"/>
<path d="M3730 1430 c-43 -11 -66 -23 -68 -34 -2 -9 1 -16 7 -16 18 0 116 39
137 55 25 19 9 18 -76 -5z"/>
<path d="M3654 1318 c-13 -19 -34 -60 -34 -64 0 -2 4 -4 9 -4 10 0 45 69 38
76 -3 3 -9 -1 -13 -8z"/>
<path d="M2770 1081 c0 -6 -9 -20 -21 -32 -12 -12 -18 -27 -14 -39 7 -22 43
-36 57 -22 13 13 6 95 -9 100 -7 2 -13 -1 -13 -7z"/>
<path d="M1248 1031 c-20 -13 -24 -20 -17 -34 22 -39 83 -9 72 34 -6 23 -20
23 -55 0z"/>
</g>
</svg>
