<svg width="80" height="80" viewBox="0 0 80 80" fill="none" xmlns="http://www.w3.org/2000/svg"><g clip-path="url(#clip0_1004_428)"><path d="M12.127 16.812a7.407 7.407 0 10-.002-14.81 7.407 7.407 0 00.002 14.81zm67.018-7.551c-7.29 6.07-23.657 17.163-37.303 22.13-16.442 5.985-24.957.909-20.715-5.806 4.343-6.87 15.549-6.697 20.315.36 3.891-2.978 7.903-6.351 11.07-9.17-7.745-7.608-24.379-7.678-34.83 3.143-4.824 4.994-8.097 14.303-3.018 20.24 6.036 7.057 17.42 4.3 24.8.763 6.906-3.309 11.481-6.303 17.3-10.57C69.112 21.3 79.539 11.295 79.539 11.295c.652-.597.222-1.41-.397-2.033h.003zM45.503 42.267c1.24 21.994-18.651 36.07-18.651 36.07 29.557-5.69 34.248-32.174 32.454-44.92-4.527 3.231-9.306 6.377-13.806 8.85h.003zM8.067 24.039C-.585 31.797-9.267 62.794 22.018 76.121c2.37-2.097 5.912-5.624 9.06-10.351C-.641 57.33 6.3 29.71 8.068 24.04z" fill="#10044A"/><path d="M43.197 29.59c11.89-5.008 27.821-15.248 34.83-21-1.366-.202-4.076-.263-5.797-.093-4.797.467-7.303 1.433-10.151 4.412-3.958 3.991-12.282 11.66-18.94 16.488l.058.194z" fill="#FF461F"/></g><defs><clipPath id="clip0_1004_428"><path fill="#fff" d="M0 0h80v80H0z"/></clipPath></defs></svg>